<svg xmlns="http://www.w3.org/2000/svg" viewBox="0 0 100 100" width="400" height="400" role="img" aria-label="cami clipp isotipo rubros puzzle">
  <title>cami clipp — Rubros</title>

  <!-- Pieza 1: arriba izquierda -->
  <path d="M8,8 L8,44 L28,44 Q28,38 34,38 Q40,38 40,44 L44,44 L44,8 Z" fill="#B5432A"/>

  <!-- Pieza 2: arriba derecha -->
  <path d="M56,8 L56,44 L60,44 Q60,38 66,38 Q72,38 72,44 L92,44 L92,8 Z" fill="#1A1A1A"/>

  <!-- Pieza 3: abajo izquierda -->
  <path d="M8,56 L8,92 L44,92 L44,72 Q38,72 38,66 Q38,60 44,60 L44,56 L28,56 Q28,50 22,50 Q16,50 16,56 Z" fill="#1A1A1A"/>

  <!-- Pieza 4: abajo derecha -->
  <path d="M56,56 L56,60 Q62,60 62,66 Q62,72 56,72 L56,92 L92,92 L92,56 L76,56 Q76,50 70,50 Q64,50 64,56 Z" fill="#B5432A"/>

  <!-- Punto central decorativo -->
  <circle cx="50" cy="50" r="4" fill="#FAF6F1"/>
</svg>
